<?xml version="1.0" standalone="no"?>
<!DOCTYPE svg PUBLIC "-//W3C//DTD SVG 20010904//EN"
 "http://www.w3.org/TR/2001/REC-SVG-20010904/DTD/svg10.dtd">
<svg version="1.0" xmlns="http://www.w3.org/2000/svg"
 width="1280.000000pt" height="1166.000000pt" viewBox="0 0 1280.000000 1166.000000"
 preserveAspectRatio="xMidYMid meet">
<metadata>
Created by potrace 1.15, written by Peter Selinger 2001-2017
</metadata>
<g transform="translate(0.000000,1166.000000) scale(0.100000,-0.100000)"
fill="#000000" stroke="none">
<path d="M11317 11505 c-21 -8 -52 -24 -70 -36 -18 -12 -648 -637 -1402 -1389
l-1370 -1367 -205 -158 c-631 -489 -1817 -1453 -2221 -1805 -973 -850 -2993
-2845 -5510 -5443 -403 -416 -415 -430 -455 -513 -79 -163 -84 -279 -19 -412
33 -66 60 -99 189 -230 l152 -154 706 719 c1749 1780 3647 3643 4698 4613 673
621 893 810 2564 2195 226 187 425 355 443 375 l32 35 431 -430 430 -430 32
33 33 32 -430 430 c-286 286 -426 433 -419 440 6 6 163 -144 469 -450 253
-253 465 -460 471 -460 5 0 22 13 37 28 l27 28 -460 459 c-253 253 -460 466
-460 472 0 7 3 13 8 13 4 0 210 -202 457 -450 247 -247 454 -450 459 -450 6 0
23 12 38 27 l29 27 -458 458 c-365 365 -455 460 -445 470 10 10 99 -74 442
-417 l430 -430 31 31 31 32 -426 422 c-234 233 -426 428 -426 435 0 6 15 25
33 43 l33 32 424 -425 c234 -234 430 -425 436 -425 5 0 22 13 37 28 l27 28
-425 424 c-379 379 -445 450 -418 450 5 0 216 -208 470 -462 l463 -463 32 33
33 32 -465 465 c-371 371 -462 467 -452 477 10 10 105 -80 470 -445 l458 -458
29 31 29 31 -452 452 c-249 249 -452 458 -452 465 0 6 6 12 13 12 6 0 203
-191 437 -425 l424 -425 28 27 c15 15 28 32 28 37 0 6 -191 202 -425 436
l-426 426 36 34 36 34 429 -429 430 -430 32 33 33 32 -430 430 c-313 313 -426
433 -418 441 8 8 136 -114 473 -450 255 -254 466 -461 470 -461 3 0 18 13 33
28 l27 28 -460 459 c-253 253 -460 466 -460 472 0 7 6 13 12 13 7 0 217 -204
465 -452 l453 -453 32 33 33 32 -457 457 c-308 308 -454 461 -448 467 7 7 151
-130 440 -419 l430 -430 32 33 33 32 -430 430 -429 429 34 36 34 35 426 -425
c234 -234 430 -425 436 -425 6 0 22 13 37 28 l27 28 -425 424 c-234 234 -425
431 -425 437 0 7 6 13 13 13 6 0 219 -207 472 -460 l459 -460 28 27 c15 15 28
31 28 36 0 5 -208 216 -462 468 -374 370 -460 461 -450 471 10 10 101 -76 470
-445 l458 -458 32 34 32 33 -455 454 c-250 250 -455 458 -455 462 0 5 6 8 13
8 6 0 203 -191 437 -425 l424 -425 28 27 c15 15 28 32 28 37 0 6 -191 202
-425 436 l-425 424 32 33 c18 18 37 33 42 33 6 0 202 -191 436 -425 l426 -426
29 31 29 31 -429 429 c-343 343 -427 432 -417 442 10 10 106 -81 477 -452
l465 -465 32 33 33 32 -463 463 c-254 254 -462 465 -462 470 0 4 6 7 12 7 7 0
217 -204 465 -452 l453 -453 32 33 33 32 -459 459 c-306 306 -454 461 -446
466 8 5 158 -138 441 -421 l429 -429 32 33 33 32 -430 430 -430 430 38 37 37
38 430 -430 430 -430 32 33 33 32 -428 428 c-235 235 -427 430 -427 435 0 4 6
7 13 7 6 0 219 -207 472 -460 l459 -460 33 32 34 32 -467 467 c-311 311 -462
469 -454 474 8 5 167 -147 469 -449 l457 -457 32 34 32 33 -455 454 c-250 250
-455 458 -455 462 0 5 6 8 13 8 6 0 201 -189 432 -420 231 -231 425 -420 431
-420 5 0 22 13 37 28 l27 28 -425 424 c-234 234 -425 430 -425 436 0 13 52 64
66 64 5 0 200 -191 434 -425 l424 -425 28 27 c15 15 28 32 28 37 0 6 -191 202
-425 436 -283 283 -421 428 -415 434 7 7 165 -144 475 -454 l465 -465 32 33
33 32 -463 463 c-254 254 -462 465 -462 470 0 4 6 7 12 7 7 0 217 -204 465
-452 l453 -453 32 33 33 32 -453 453 c-248 248 -452 458 -452 465 0 6 3 12 7
12 5 0 200 -192 435 -427 l428 -428 32 33 33 32 -430 430 -430 430 38 37 37
38 430 -430 430 -430 32 33 33 32 -428 428 c-235 235 -427 430 -427 435 0 4 6
7 12 7 7 0 220 -207 473 -460 l461 -461 32 34 32 33 -460 459 c-253 253 -460
466 -460 472 0 7 3 13 8 13 4 0 212 -205 462 -455 l454 -455 33 32 34 32 -458
458 c-305 305 -454 461 -447 468 6 6 151 -132 434 -415 234 -234 430 -425 436
-425 5 0 22 13 37 28 l27 28 -425 424 c-234 234 -425 429 -425 434 0 6 12 23
28 39 l27 28 -180 178 c-214 211 -263 242 -393 248 -50 2 -90 -2 -115 -12z"/>
</g>
</svg>
